PathFileType	4	(X/Y/Z)	C:/Users/opensim2020/Desktop/walking_exp_matlab/subject02_walking05_straight_01.trc	
DataRate	CameraRate	NumFrames	NumMarkers	Units	OrigDataRate	OrigDataStartFrame	OrigNumFrames	
100.00	100.00	4	42	mm	100.00	792	190	
Frame#	Time	LFHD			RFHD			LBHD			RBHD			C7			T10			CLAV			STRN			RBAK			LSHO			LUPA			LELB			LFRM			LWRA			LWRB			LFIN			RSHO			RUPA			RELB			RFRM			RWRA			RWRB			RFIN			LASI			RASI			LPSI			RPSI			LTHI			LKNE			LTIB			LANK			LHEE			LTOE			RTHI			RKNE			RTIB			RANK			RHEE			RTOE			*39			*40			*41			
		X1	Y1	Z1	X2	Y2	Z2	X3	Y3	Z3	X4	Y4	Z4	X5	Y5	Z5	X6	Y6	Z6	X7	Y7	Z7	X8	Y8	Z8	X9	Y9	Z9	X10	Y10	Z10	X11	Y11	Z11	X12	Y12	Z12	X13	Y13	Z13	X14	Y14	Z14	X15	Y15	Z15	X16	Y16	Z16	X17	Y17	Z17	X18	Y18	Z18	X19	Y19	Z19	X20	Y20	Z20	X21	Y21	Z21	X22	Y22	Z22	X23	Y23	Z23	X24	Y24	Z24	X25	Y25	Z25	X26	Y26	Z26	X27	Y27	Z27	X28	Y28	Z28	X29	Y29	Z29	X30	Y30	Z30	X31	Y31	Z31	X32	Y32	Z32	X33	Y33	Z33	X34	Y34	Z34	X35	Y35	Z35	X36	Y36	Z36	X37	Y37	Z37	X38	Y38	Z38	X39	Y39	Z39	X40	Y40	Z40	X41	Y41	Z41	X42	Y42	Z42	

143	1.420	-1086.01978	151.13037	1750.43091	-944.33478	138.05360	1725.94360	-1111.83899	34.47262	1658.22339	-972.99347	9.61749	1630.53687	-1037.49658	-20.29980	1526.63184	-1022.51605	-89.03207	1255.88245	-1049.96814	117.29606	1452.91602	-1034.32300	159.03439	1277.90942	-961.35400	-83.22146	1361.63220	-1218.89368	45.90352	1492.07361	-1298.40527	-11.56319	1301.24951	-1313.97131	-42.79768	1163.82642	-1330.08032	-47.80237	1030.07104	-1310.40771	3.91364	901.97235	-1333.76038	-47.91770	906.95355	-1340.50525	-33.82661	841.75726	-854.50220	68.71532	1499.05151	-757.70361	72.49267	1311.15271	-738.86816	113.40374	1168.02063	-728.43567	172.17798	1061.80200	-758.11896	247.12016	952.50427	-719.69604	208.18112	936.67303	-723.36371	261.06909	887.72583	-1161.69299	137.39514	994.21631	-905.06836	138.67754	974.76984	-1080.00806	-70.88394	1031.18604	-965.77917	-76.32642	1030.48389	-1237.98621	139.49557	691.57025	-1216.85022	185.45108	499.29263	-1223.20349	169.17189	307.01959	-1211.46509	221.87117	87.43763	-1156.54871	199.32330	54.76809	-1235.64880	376.74057	68.24648	-857.00732	39.97626	666.68280	-903.90845	13.03397	458.25983	-900.89307	-56.13713	282.01941	-944.67017	-104.31884	94.50426	-1000.02606	-146.27753	42.00292	-932.38959	43.06287	36.91668	-1006.32129	31.59620	1796.42700						 
144	1.430	-1087.67200	159.99377	1749.02979	-945.96893	146.95772	1724.94092	-1113.41028	43.70517	1656.45032	-974.57880	18.74812	1629.21008	-1038.82153	-10.85734	1525.22534	-1023.74500	-80.01132	1254.68250	-1050.94800	126.79162	1451.42395	-1034.71021	167.99878	1276.39294	-962.61066	-74.32419	1360.56995	-1219.68872	55.80960	1490.06995	-1299.15857	-3.13445	1299.90845	-1314.74976	-36.22458	1162.95593	-1331.25220	-44.38148	1029.81006	-1311.13904	3.47114	899.52216	-1335.18469	-47.52533	906.55176	-1341.87329	-35.36846	840.91772	-855.65289	77.65096	1497.79028	-758.77155	82.67523	1310.27673	-739.60638	125.30032	1167.54932	-729.63019	185.80139	1062.14270	-759.83057	262.22443	954.15302	-721.21204	223.67360	937.55859	-725.04010	277.47491	889.52118	-1161.72546	146.99542	993.16443	-904.79919	147.06512	973.75244	-1081.08398	-61.71770	1029.58069	-966.94287	-67.91751	1028.95996	-1238.37280	149.86903	690.64954	-1217.21765	197.18439	498.39798	-1225.71765	187.02235	305.78174	-1214.02563	246.51041	87.54594	-1160.05664	223.32695	53.48985	-1234.16577	402.26944	72.77898	-857.49689	46.50429	665.56134	-904.24280	17.72675	457.43695	-901.21918	-53.25174	281.89508	-944.83752	-103.54091	94.93589	-1000.42883	-145.96848	42.59217	-932.34753	43.19830	37.06480	-1007.84131	40.55790	1794.91809						 
145	1.440	-1089.53418	169.00346	1747.54504	-947.82239	155.64619	1723.95093	-1115.09668	52.93030	1654.54138	-975.86224	28.41258	1627.50977	-1040.30347	-1.44278	1523.77222	-1025.07971	-70.96294	1253.41187	-1051.93738	136.33054	1449.86694	-1035.22974	176.52704	1274.70935	-964.10138	-65.27263	1359.39514	-1221.36365	65.85989	1488.40771	-1300.26147	5.57646	1298.57898	-1315.57605	-29.40629	1162.21997	-1332.63086	-40.45674	1029.33582	-1312.45715	3.99426	897.82928	-1336.72485	-46.64418	906.28229	-1343.23987	-36.40577	840.27417	-856.85266	86.53109	1496.77856	-759.64655	93.15223	1309.34851	-740.40961	137.20302	1167.13159	-731.06616	199.20819	1062.45435	-761.57410	277.42004	955.77411	-722.87866	238.91518	938.38330	-726.91888	293.48080	891.31122	-1161.78296	156.83189	992.07721	-904.83643	155.55923	972.53625	-1082.27490	-52.46059	1027.93359	-968.19824	-59.34747	1027.42859	-1238.87988	160.50424	689.69312	-1217.65698	208.90215	497.31219	-1227.86584	204.19638	304.67361	-1216.31604	269.80438	87.87888	-1163.11951	246.16968	52.95244	-1232.84119	426.54980	77.67786	-857.82867	52.86222	664.53223	-904.68048	22.85353	456.42004	-901.63336	-50.47058	281.78256	-945.28888	-103.17955	95.46696	-1000.87579	-145.93877	43.57237	-932.27417	43.33321	37.03882	-1010.26440	49.16462	1793.44812						 
146	1.450	-1091.41028	178.02455	1746.00208	-949.56238	164.91127	1722.90845	-1116.79651	62.15818	1652.47510	-978.59137	36.60988	1626.02295	-1041.97937	8.01891	1522.06238	-1026.43994	-61.77934	1252.13708	-1053.09155	145.96608	1448.28784	-1035.80542	185.81584	1273.13440	-965.59241	-55.91381	1357.98596	-1222.43347	75.84650	1486.36743	-1301.45410	14.43033	1297.22620	-1316.65161	-22.34912	1161.46326	-1333.59351	-36.39460	1029.12988	-1313.75317	4.86553	896.29547	-1338.35339	-45.30090	906.14893	-1344.62769	-36.92728	839.74414	-858.08679	95.88143	1495.52087	-760.89325	103.24612	1308.29993	-741.36224	148.82700	1166.36621	-732.42926	212.34866	1062.63281	-763.13727	291.90817	956.97473	-724.62427	253.85649	939.13831	-728.87000	309.01953	892.96222	-1161.75525	166.82323	990.94061	-904.83026	163.33235	970.88422	-1083.56604	-43.09648	1026.29492	-969.56592	-50.55232	1025.81177	-1239.42798	171.35002	688.78729	-1218.23633	220.39037	496.24966	-1229.63806	220.54550	303.57007	-1218.22021	291.90915	88.28745	-1165.80212	268.25650	52.31799	-1231.46753	449.24963	82.27248	-858.29034	59.15646	663.44763	-904.92065	27.78537	455.53506	-902.03595	-47.71383	281.74680	-945.61035	-102.35351	96.03784	-1001.33044	-145.62437	44.28502	-932.22900	43.45403	36.96758	-1012.37653	58.01381	1791.81177						 
